<?xml version="1.0" encoding="UTF-8"?>
<svg version="1.1" xmlns="http://www.w3.org/2000/svg" width="870" height="280">
<path d="M0 0 C0.7822998 -0.00817749 1.56459961 -0.01635498 2.37060547 -0.02478027 C4.96540559 -0.04963915 7.56015099 -0.06615135 10.1550293 -0.08056641 C11.04059195 -0.08589008 11.92615459 -0.09121376 12.83855247 -0.09669876 C17.5256603 -0.1234323 22.21274146 -0.14280666 26.89990234 -0.15722656 C31.74239735 -0.17387651 36.58421205 -0.21865626 41.42644978 -0.26959801 C45.14880662 -0.30324568 48.87100149 -0.31480123 52.59349632 -0.32045364 C54.37850329 -0.32717284 56.16349936 -0.34241233 57.94835854 -0.36634445 C60.44790796 -0.39794749 62.94561594 -0.39804079 65.4453125 -0.390625 C66.18160385 -0.40703033 66.9178952 -0.42343567 67.67649841 -0.44033813 C71.58231815 -0.3929434 73.23163392 0.03982207 76.28117371 2.56112671 C78.46891796 5.25716194 80.61081534 7.95701824 82.66674805 10.75537109 C83.45178711 11.81626953 84.23682617 12.87716797 85.0456543 13.97021484 C85.64144287 14.78014893 85.64144287 14.78014893 86.24926758 15.60644531 C90.76103918 21.73724662 95.33011564 27.81935756 100.02612305 33.81005859 C100.65752197 34.61620605 101.2889209 35.42235352 101.93945312 36.25292969 C103.19650227 37.85473373 104.45666059 39.45410364 105.72021484 41.05078125 C106.29940674 41.7886084 106.87859863 42.52643555 107.4753418 43.28662109 C108.25349243 44.27178711 108.25349243 44.27178711 109.04736328 45.27685547 C111.55346527 48.78334298 112.66754791 51.40800686 112.65966797 55.74609375 C112.6627446 56.64027008 112.66582123 57.53444641 112.66899109 58.45571899 C112.65821281 59.89182022 112.65821281 59.89182022 112.6472168 61.35693359 C112.64675858 62.34535248 112.64630035 63.33377136 112.64582825 64.35214233 C112.64281044 66.43838707 112.63493823 68.52462965 112.62255859 70.61083984 C112.60427732 73.81274344 112.60204915 77.0143582 112.60229492 80.21630859 C112.5973805 82.24235277 112.59155251 84.26839499 112.5847168 86.29443359 C112.58360397 87.25588287 112.58249115 88.21733215 112.5813446 89.20791626 C112.57496475 90.09578827 112.5685849 90.98366028 112.56201172 91.8984375 C112.55819992 92.68135162 112.55438812 93.46426575 112.55046082 94.27090454 C112.41674805 96.19287109 112.41674805 96.19287109 111.41674805 98.19287109 C110.42674805 98.19287109 109.43674805 98.19287109 108.41674805 98.19287109 C108.41674805 97.20287109 108.41674805 96.21287109 108.41674805 95.19287109 C107.83151367 94.96212891 107.2462793 94.73138672 106.64331055 94.49365234 C103.84068135 92.85632687 102.62989222 91.05154656 100.79174805 88.38037109 C97.7325842 84.03373791 94.6069054 79.76986273 91.35424805 75.56787109 C90.92748779 75.01518555 90.50072754 74.4625 90.06103516 73.89306641 C87.66808835 70.79820695 85.26258024 67.7132593 82.85424805 64.63037109 C79.37903689 60.17392384 76.00224923 55.64574427 72.61987305 51.11865234 C70.16117455 47.85346587 67.65438747 44.62988461 65.11987305 41.42333984 C63.41674805 39.19287109 63.41674805 39.19287109 62.5995636 37.46632385 C61.41058367 35.24381994 60.36180418 33.81334024 58.41674805 32.19287109 C54.21711314 31.19841891 50.11258492 31.39912504 45.8190918 31.55224609 C44.59267471 31.5724884 43.36625763 31.59273071 42.10267639 31.61358643 C39.51255874 31.66447869 36.92273374 31.73283759 34.33349609 31.81738281 C30.3654054 31.94251924 26.40006358 32.00350259 22.43041992 32.05615234 C19.91405404 32.11353747 17.397769 32.17461078 14.8815918 32.23974609 C13.09868996 32.26678619 13.09868996 32.26678619 11.2797699 32.29437256 C5.14415927 32.3118509 5.14415927 32.3118509 0.13769531 35.31494141 C-0.43021729 36.2646582 -0.99812988 37.214375 -1.58325195 38.19287109 C-2.79665369 39.32971013 -4.04664535 40.4280439 -5.31958008 41.49780273 C-9.6903569 45.23955778 -13.7500508 49.23224043 -17.80200195 53.31396484 C-18.91702087 54.43110619 -18.91702087 54.43110619 -20.05456543 55.57081604 C-22.39984496 57.92163855 -24.74160031 60.2759354 -27.08325195 62.63037109 C-28.68458156 64.23672308 -30.28614193 65.84284506 -31.88793945 67.44873047 C-35.78904668 71.36079094 -39.68727615 75.27570062 -43.58325195 79.19287109 C-42.0124947 83.38286826 -40.16588927 86.12179572 -37.20825195 89.50537109 C-32.44762979 95.04524594 -28.04269479 100.80492509 -23.69506836 106.67260742 C-23.21730957 107.31738037 -22.73955078 107.96215332 -22.24731445 108.62646484 C-21.79420898 109.23901123 -21.34110352 109.85155762 -20.87426758 110.48266602 C-19.71142844 112.02307603 -18.49781108 113.52483583 -17.27856445 115.02099609 C-15.60882674 117.16010708 -14.9765536 118.538085 -14.58325195 121.19287109 C-13.92325195 120.86287109 -13.26325195 120.53287109 -12.58325195 120.19287109 C-10.68766778 120.14109489 -8.79175061 120.10117596 -6.89575195 120.06787109 C-2.55231638 119.72741177 -0.04860569 119.39796505 2.97924805 116.19287109 C3.77588867 115.24347656 3.77588867 115.24347656 4.58862305 114.27490234 C6.7571107 111.80523585 9.14651039 109.9112109 11.72924805 107.88037109 C16.66208614 103.95174213 20.91780848 99.65490078 25.12768555 94.96630859 C27.41674805 93.19287109 27.41674805 93.19287109 29.86206055 93.06787109 C33.34227262 94.60044155 35.48014023 96.99517359 37.91674805 99.81787109 C38.39942139 100.35968018 38.88209473 100.90148926 39.37939453 101.4597168 C42.6703152 105.19820714 45.59124223 109.0913304 48.41674805 113.19287109 C49.07674805 113.52287109 49.73674805 113.85287109 50.41674805 114.19287109 C49.02797451 117.54907381 47.49996839 119.26585838 44.41674805 121.19287109 C43.75674805 121.19287109 43.09674805 121.19287109 42.41674805 121.19287109 C42.19245117 121.75361328 41.9681543 122.31435547 41.73706055 122.89208984 C40.02362462 125.87792938 37.86858744 127.72641146 35.29174805 130.00537109 C34.79747314 130.44550537 34.30319824 130.88563965 33.79394531 131.33911133 C32.34070201 132.63028114 30.87887476 133.91176959 29.41674805 135.19287109 C28.70647461 135.81677734 27.99620117 136.44068359 27.2644043 137.08349609 C25.98784624 138.20081071 24.69855886 139.30374189 23.3972168 140.39208984 C21.31806964 142.20195132 21.31806964 142.20195132 19.4050293 144.58740234 C14.85560279 149.62908792 11.21765114 151.67094241 4.5390625 152.16943359 C1.05444353 152.28641842 -2.41781991 152.2823006 -5.90356445 152.21777344 C-8.58733841 152.19283312 -11.24608497 152.28014815 -13.92700195 152.39990234 C-15.62487114 152.45731357 -17.32278735 152.51335462 -19.02075195 152.56787109 C-20.20012329 152.62599976 -20.20012329 152.62599976 -21.40332031 152.68530273 C-25.17941723 152.73760553 -27.19992204 152.48931289 -30.2199707 150.15380859 C-30.99985352 149.17669922 -31.77973633 148.19958984 -32.58325195 147.19287109 C-33.0733374 146.61005371 -33.56342285 146.02723633 -34.06835938 145.42675781 C-35.72603214 143.45332582 -37.34455622 141.45237899 -38.95825195 139.44287109 C-39.49708008 138.77771484 -40.0359082 138.11255859 -40.59106445 137.42724609 C-44.65268304 132.39857546 -48.62585119 127.30372964 -52.58325195 122.19287109 C-53.702778 120.75125853 -54.82256725 119.30985033 -55.94262695 117.86865234 C-56.49547363 117.15708984 -57.04832031 116.44552734 -57.61791992 115.71240234 C-62.55266603 109.3631133 -67.49281902 103.01820161 -72.45825195 96.69287109 C-72.90056152 96.12818115 -73.34287109 95.56349121 -73.79858398 94.98168945 C-75.84093628 92.38062381 -77.90464262 89.80201857 -80.00512695 87.24755859 C-80.7321582 86.36326172 -81.45918945 85.47896484 -82.20825195 84.56787109 C-82.83989258 83.81248047 -83.4715332 83.05708984 -84.12231445 82.27880859 C-85.60466792 80.16229322 -86.35201597 78.7633548 -86.58325195 76.19287109 C-84.98050005 74.33161082 -83.40271259 72.82262494 -81.58325195 71.19287109 C-80.30740027 69.9061611 -79.03694221 68.61408958 -77.77075195 67.31787109 C-75.28134371 64.78069169 -72.69829886 62.4222025 -70.00048828 60.11230469 C-65.30966514 56.01693491 -60.93038893 51.64869311 -56.55200195 47.22412109 C-55.71664917 46.38498169 -54.88129639 45.54584229 -54.02062988 44.68127441 C-51.37238109 42.02090209 -48.72740789 39.35731097 -46.08325195 36.69287109 C-42.59662594 33.17949836 -39.10660269 29.66955139 -35.61450195 26.16162109 C-34.82781128 25.36663208 -34.04112061 24.57164307 -33.23059082 23.75256348 C-27.69935551 18.19710852 -22.04128812 12.86498995 -15.83325195 8.06787109 C-13.36210806 6.00858451 -11.56227311 3.71782913 -9.58325195 1.19287109 C-6.53398338 -0.33176319 -3.34707024 0.01920668 0 0 Z " fill="#FEFEFE" transform="translate(117.583251953125,35.80712890625)"/>
<path d="M0 0 C2.94553478 -0.15305278 5.88941776 -0.2556318 8.83740234 -0.34863281 C9.7692334 -0.4035791 10.70106445 -0.45852539 11.66113281 -0.51513672 C18.08920368 -0.64007833 18.08920368 -0.64007833 20.91186523 1.46606445 C22.49544793 3.27796692 23.81976684 5.14689511 25.14990234 7.15136719 C26.13413719 8.43643619 27.12515814 9.71633333 28.12255859 10.99121094 C29.15387586 12.35606272 30.18377201 13.72198924 31.21240234 15.08886719 C36.19059562 21.65751683 41.30972306 28.08765014 46.53686523 34.45922852 C50.59541123 39.42339535 54.46711293 44.49236019 58.27099609 49.65527344 C59.85063908 51.75380123 61.4810657 53.74139731 63.21240234 55.71386719 C65.14990234 58.15136719 65.14990234 58.15136719 65.14990234 61.15136719 C66.13990234 61.48136719 67.12990234 61.81136719 68.14990234 62.15136719 C69.53662109 63.70996094 69.53662109 63.70996094 70.83740234 65.58886719 C71.27439453 66.20632812 71.71138672 66.82378906 72.16162109 67.45996094 C73.14990234 69.15136719 73.14990234 69.15136719 73.14990234 71.15136719 C74.13990234 71.48136719 75.12990234 71.81136719 76.14990234 72.15136719 C75.77882634 77.19649566 73.11046976 79.74451828 69.65380859 83.10839844 C69.10506577 83.65622482 68.55632294 84.20405121 67.99095154 84.76847839 C66.83308023 85.92032336 65.67036745 87.06731939 64.50317383 88.2097168 C62.71159784 89.96465524 60.93667094 91.73520138 59.16357422 93.50878906 C58.0362606 94.6262762 56.90803631 95.74284555 55.77880859 96.85839844 C54.97873131 97.65513725 54.97873131 97.65513725 54.16249084 98.4679718 C50.38206626 102.15136719 50.38206626 102.15136719 48.14990234 102.15136719 C47.94365234 102.69277344 47.73740234 103.23417969 47.52490234 103.79199219 C45.61305565 107.0725473 42.94491731 109.38980893 40.14990234 111.90136719 C39.33005859 112.66126953 39.33005859 112.66126953 38.49365234 113.43652344 C34.40832552 117.15136719 34.40832552 117.15136719 32.14990234 117.15136719 C31.77865234 118.01761719 31.77865234 118.01761719 31.39990234 118.90136719 C29.96690246 121.48076698 28.36565558 123.21258311 26.14990234 125.15136719 C25.48990234 125.15136719 24.82990234 125.15136719 24.14990234 125.15136719 C23.94365234 125.70824219 23.73740234 126.26511719 23.52490234 126.83886719 C22.00695524 129.39177822 20.18956665 130.83142759 17.87255859 132.64746094 C15.1575826 135.01767808 12.94754771 137.79657857 10.66552734 140.57714844 C10.16537109 141.09664062 9.66521484 141.61613281 9.14990234 142.15136719 C8.48990234 142.15136719 7.82990234 142.15136719 7.14990234 142.15136719 C6.92302734 142.70824219 6.69615234 143.26511719 6.46240234 143.83886719 C4.69460591 146.95355614 2.9348908 148.86999498 0.14990234 151.15136719 C-2.7657495 151.66165083 -5.10442631 151.86677294 -8.01757812 151.84594727 C-9.23075714 151.86631798 -9.23075714 151.86631798 -10.46844482 151.88710022 C-13.13518307 151.92432037 -15.80031048 151.92443473 -18.46728516 151.92089844 C-20.32667668 151.93189063 -22.18606231 151.94392494 -24.04544067 151.95695496 C-27.94095215 151.97785204 -31.83589927 151.97914664 -35.73144531 151.96801758 C-40.71447604 151.95633225 -45.69495458 152.00382249 -50.67751884 152.06747913 C-54.5176093 152.10814143 -58.35708773 152.11183757 -62.19736099 152.10507774 C-64.0337525 152.10727928 -65.87017534 152.12212291 -67.70635605 152.15003395 C-82.01373711 152.34257474 -82.01373711 152.34257474 -86.44975281 149.46502686 C-88.24751934 147.44799537 -89.55546338 145.51508084 -90.85009766 143.15136719 C-91.49342041 142.34006348 -92.13674316 141.52875977 -92.79956055 140.69287109 C-93.30221436 140.01144043 -93.80486816 139.33000977 -94.32275391 138.62792969 C-94.90573242 137.84305176 -95.48871094 137.05817383 -96.08935547 136.24951172 C-96.99186035 135.02530518 -96.99186035 135.02530518 -97.91259766 133.77636719 C-103.60604887 126.10327169 -109.40116191 118.5254713 -115.36987305 111.06396484 C-115.91506592 110.37351074 -116.46025879 109.68305664 -117.02197266 108.97167969 C-117.73498535 108.07860107 -117.73498535 108.07860107 -118.46240234 107.16748047 C-122.83259628 100.81824374 -123.26237112 96.0171481 -123.14306641 88.50292969 C-123.13882156 87.49040131 -123.13457672 86.47787292 -123.13020325 85.43466187 C-123.11347068 82.2149547 -123.07582791 78.99588374 -123.03759766 75.77636719 C-123.02254384 73.58757417 -123.00885665 71.3987713 -122.99658203 69.20996094 C-122.96358498 63.85688093 -122.91343961 58.50416953 -122.85009766 53.15136719 C-118.31427742 53.69402092 -118.31427742 53.69402092 -116.25805664 55.7199707 C-115.81276611 56.37924561 -115.36747559 57.03852051 -114.90869141 57.71777344 C-114.40450684 58.44109863 -113.90032227 59.16442383 -113.38085938 59.90966797 C-112.62313232 61.01930908 -112.62313232 61.01930908 -111.85009766 62.15136719 C-110.86867143 63.47808023 -109.88050999 64.79984083 -108.88525391 66.11621094 C-108.39887451 66.7664624 -107.91249512 67.41671387 -107.41137695 68.08666992 C-102.61798924 74.49008622 -97.79430665 80.86322109 -92.85009766 87.15136719 C-85.38503792 96.67151396 -78.02852848 106.25567895 -71.26025391 116.28808594 C-69.9735379 118.27436452 -69.9735379 118.27436452 -67.85009766 119.15136719 C-66.18703903 119.26200452 -64.51966644 119.31051634 -62.85302734 119.32836914 C-61.8114447 119.34120438 -60.76986206 119.35403961 -59.69671631 119.36726379 C-58.5665509 119.37465073 -57.4363855 119.38203766 -56.27197266 119.38964844 C-55.11264221 119.39772018 -53.95331177 119.40579193 -52.7588501 119.41410828 C-50.3008372 119.42795853 -47.84280499 119.43867646 -45.38476562 119.4465332 C-41.62934779 119.46373322 -37.87481297 119.50761109 -34.11962891 119.55175781 C-31.73291664 119.5618856 -29.34619688 119.57040143 -26.95947266 119.57714844 C-25.83740417 119.59465652 -24.71533569 119.61216461 -23.55926514 119.63020325 C-15.98106349 119.60917239 -12.56777545 118.61484479 -7.02197266 113.44824219 C-6.55275391 112.93777344 -6.08353516 112.42730469 -5.60009766 111.90136719 C-4.69259766 110.99386719 -3.78509766 110.08636719 -2.85009766 109.15136719 C-2.19009766 109.15136719 -1.53009766 109.15136719 -0.85009766 109.15136719 C-0.47751831 108.29200562 -0.47751831 108.29200562 -0.09741211 107.4152832 C1.33905259 104.80805339 3.00595672 103.03634625 5.10693359 100.92871094 C5.89003906 100.14302734 6.67314453 99.35734375 7.47998047 98.54785156 C8.29917969 97.73638672 9.11837891 96.92492187 9.96240234 96.08886719 C10.77 95.27353516 11.57759766 94.45820313 12.40966797 93.61816406 C13.19664062 92.83376953 13.98361328 92.049375 14.79443359 91.24121094 C15.50962158 90.52827881 16.22480957 89.81534668 16.96166992 89.08081055 C19.14990234 87.15136719 19.14990234 87.15136719 21.82836914 85.5559082 C24.34486086 84.2854762 24.34486086 84.2854762 25.64990234 81.58886719 C27.14990234 79.15136719 27.14990234 79.15136719 29.71240234 78.21386719 C32.43205873 77.34417578 32.43205873 77.34417578 33.49365234 74.35449219 C34.47687444 71.2400043 34.47687444 71.2400043 33.05224609 68.97558594 C32.40384766 68.27046875 31.75544922 67.56535156 31.08740234 66.83886719 C30.34232422 65.98550781 29.59724609 65.13214844 28.82958984 64.25292969 C28.40516602 63.77114258 27.98074219 63.28935547 27.54345703 62.79296875 C25.38746056 60.25321397 23.39642671 57.59437024 21.39038086 54.93554688 C19.71364972 52.71551874 18.01308284 50.515323 16.31005859 48.31542969 C14.37234981 45.79819233 12.52460715 43.26061526 10.77099609 40.61230469 C7.93512829 36.57001798 5.87702933 33.75239844 1.13037109 32.10058594 C-4.27769107 31.56811956 -7.58399067 32.26785807 -12.06884766 35.39746094 C-15.20253356 38.12119137 -18.00764 41.12869608 -20.85009766 44.15136719 C-22.22696715 45.40173984 -23.62033396 46.63447314 -25.03759766 47.83886719 C-27.14342387 49.64574521 -29.18868889 51.47418379 -31.19775391 53.38964844 C-32.38691406 54.50919922 -32.38691406 54.50919922 -33.60009766 55.65136719 C-34.31681641 56.34230469 -35.03353516 57.03324219 -35.77197266 57.74511719 C-37.85009766 59.15136719 -37.85009766 59.15136719 -39.78369141 59.21777344 C-42.87186714 57.6240646 -44.91488377 55.17203742 -47.16259766 52.58886719 C-47.64317627 52.04818604 -48.12375488 51.50750488 -48.61889648 50.95043945 C-49.58388803 49.86294521 -50.54545504 48.77240168 -51.50341797 47.67871094 C-52.69209501 46.33056671 -53.90599722 45.0047546 -55.12353516 43.68261719 C-55.75517578 42.99167969 -56.38681641 42.30074219 -57.03759766 41.58886719 C-57.58802734 40.98945312 -58.13845703 40.39003906 -58.70556641 39.77246094 C-59.85009766 38.15136719 -59.85009766 38.15136719 -59.85009766 35.15136719 C-58.86009766 35.15136719 -57.87009766 35.15136719 -56.85009766 35.15136719 C-56.58197266 34.55324219 -56.31384766 33.95511719 -56.03759766 33.33886719 C-54.84022291 31.13317686 -53.80530782 29.71553532 -51.85009766 28.15136719 C-50.86009766 28.15136719 -49.87009766 28.15136719 -48.85009766 28.15136719 C-48.64384766 27.60867187 -48.43759766 27.06597656 -48.22509766 26.50683594 C-46.31694712 23.23804397 -43.64463104 20.95774567 -40.85009766 18.46386719 C-39.98203491 17.67810303 -39.98203491 17.67810303 -39.09643555 16.87646484 C-37.91638019 15.80929847 -36.73417381 14.74450573 -35.54980469 13.68212891 C-33.99142394 12.2786461 -32.44724881 10.86166324 -30.90869141 9.43652344 C-30.04373047 8.64117187 -29.17876953 7.84582031 -28.28759766 7.02636719 C-27.52318359 6.32253906 -26.75876953 5.61871094 -25.97119141 4.89355469 C-21.64282567 1.33839609 -17.98765062 0.76791478 -12.47509766 0.52636719 C-11.74701904 0.49349609 -11.01894043 0.460625 -10.26879883 0.42675781 C-8.66934027 0.3612487 -7.06961732 0.30197934 -5.46972656 0.24804688 C-3.64585223 0.1807352 -1.82254746 0.09679454 0 0 Z " fill="#FEFEFE" transform="translate(152.85009765625,80.8486328125)"/>
<path d="M0 0 C0.80308594 -0.02900391 1.60617187 -0.05800781 2.43359375 -0.08789062 C3.21605469 -0.09626953 3.99851562 -0.10464844 4.8046875 -0.11328125 C5.51351074 -0.12786377 6.22233398 -0.14244629 6.95263672 -0.1574707 C10.26497257 0.55912252 11.7439573 1.89553387 14.125 4.3125 C15.71574714 7.08295646 16.88164804 9.98330237 18.05859375 12.94921875 C18.41304062 13.80839401 18.76748749 14.66756927 19.13267517 15.55278015 C20.28901009 18.36336562 21.42556582 21.18151777 22.5625 24 C23.36449556 25.95783073 24.1680588 27.91501999 24.97314453 29.87158203 C26.59678004 33.81936928 28.21457454 37.76947178 29.82861328 41.72119141 C32.70212375 48.73886914 35.66617801 55.71673813 38.64724731 62.6892395 C40.05139155 65.97957914 41.44254787 69.27540805 42.8359375 72.5703125 C44.80998288 77.23708951 46.80669035 81.89318789 48.8265686 86.54031372 C49.99430607 89.2350468 51.1481059 91.93560571 52.2991333 94.63751221 C52.84326439 95.90581096 53.39354294 97.17149255 53.95037842 98.43426514 C54.71194451 100.16281783 55.45031723 101.9015336 56.1875 103.640625 C56.61160156 104.6193457 57.03570313 105.59806641 57.47265625 106.60644531 C58.28861294 109.9911998 57.8757755 111.33343826 56.125 114.3125 C54.30090091 116.33331155 52.8205111 117.2180971 50.11131287 117.58582115 C47.46558145 117.69758105 44.83555618 117.70608027 42.1875 117.68481445 C40.67470459 117.69029045 40.67470459 117.69029045 39.13134766 117.69587708 C35.79572745 117.70398677 32.46059238 117.69036862 29.125 117.67578125 C26.80859375 117.6752627 24.49218706 117.67578022 22.17578125 117.67729187 C17.3202457 117.67720213 12.46487612 117.66676835 7.609375 117.64868164 C1.38152092 117.62599457 -4.84609058 117.62545022 -11.07397461 117.63219929 C-15.85744385 117.63553876 -20.64085767 117.62890955 -25.42431641 117.61907005 C-27.72086294 117.61521741 -30.01741563 117.6140701 -32.31396484 117.6156559 C-35.52192967 117.61602623 -38.72958205 117.60341498 -41.9375 117.5871582 C-42.88931152 117.58963562 -43.84112305 117.59211304 -44.82177734 117.59466553 C-45.69656738 117.58758072 -46.57135742 117.58049591 -47.47265625 117.57319641 C-48.23070557 117.57114354 -48.98875488 117.56909067 -49.76977539 117.56697559 C-52.19588423 117.27371212 -53.792925 116.57655998 -55.875 115.3125 C-57.47966161 113.09653873 -57.90632536 111.86069386 -57.75 109.125 C-55.64455597 102.35750133 -53.41409848 96.97706489 -47.875 92.3125 C-44.65422058 91.67326355 -44.65422058 91.67326355 -40.97338867 91.65307617 C-40.29966217 91.64259247 -39.62593567 91.63210876 -38.93179321 91.62130737 C-36.71837813 91.59264521 -34.50653549 91.59883742 -32.29296875 91.60546875 C-30.75309802 91.59234815 -29.2132445 91.57704279 -27.67341614 91.55964661 C-23.63081773 91.51982516 -19.58866983 91.5096081 -15.54589844 91.50561523 C-11.4165279 91.49627828 -7.28742146 91.45886131 -3.15820312 91.42382812 C4.93620281 91.35928152 13.03034874 91.3260176 21.125 91.3125 C19.53891881 85.81404264 17.91092058 80.43692725 15.63671875 75.17578125 C15.18014893 74.11020996 14.7235791 73.04463867 14.25317383 71.94677734 C13.77775146 70.85059082 13.3023291 69.7544043 12.8125 68.625 C11.82961022 66.33251067 10.8478339 64.03954362 9.8671875 61.74609375 C9.39635742 60.6463623 8.92552734 59.54663086 8.44042969 58.41357422 C5.8984701 52.42100357 3.49581006 46.37457129 1.125 40.3125 C0.465 40.3125 -0.195 40.3125 -0.875 40.3125 C-2.06126835 43.10688545 -3.24671878 45.90161356 -4.43115234 48.69677734 C-5.43898526 51.07408694 -6.44843726 53.45071076 -7.45947266 55.82666016 C-9.69382781 61.09084393 -11.91588225 66.35324804 -13.98828125 71.68359375 C-14.2917749 72.45646729 -14.59526855 73.22934082 -14.90795898 74.02563477 C-15.45249171 75.423674 -15.9853959 76.82632286 -16.50415039 78.23413086 C-18.18116787 82.5129386 -19.85684917 85.02045622 -23.875 87.3125 C-27.46875 87.80859375 -27.46875 87.80859375 -31.375 87.75 C-33.30859375 87.74806641 -33.30859375 87.74806641 -35.28125 87.74609375 C-39.28665591 87.26283282 -42.00068482 86.18681518 -44.875 83.3125 C-45.31599325 78.32075283 -44.16194107 74.95035548 -42.15625 70.40625 C-41.86646774 69.74032837 -41.57668549 69.07440674 -41.27812195 68.38830566 C-40.32016392 66.19195698 -39.34752345 64.00243309 -38.375 61.8125 C-37.35560658 59.48523082 -36.34016964 57.15626144 -35.32499695 54.82714844 C-34.61487749 53.19836307 -33.90352092 51.57011656 -33.19099426 49.94238281 C-30.53646734 43.86888855 -27.94580626 37.77052355 -25.38671875 31.65625 C-25.02293121 30.78738159 -24.65914368 29.91851318 -24.28433228 29.02331543 C-22.85693962 25.61101299 -21.43126795 22.19800467 -20.00927734 18.78344727 C-19.02319782 16.41699682 -18.03337723 14.05214121 -17.04296875 11.6875 C-16.75089035 10.98282593 -16.45881195 10.27815186 -16.15788269 9.55212402 C-14.91434186 6.58887489 -13.6646658 3.99699869 -11.875 1.3125 C-7.87750195 -0.01999935 -4.18698778 0.04992434 0 0 Z " fill="#FDFDFD" transform="translate(560.875,81.6875)"/>
<path d="M0 0 C1.60174828 -0.01418472 1.60174828 -0.01418472 3.2358551 -0.02865601 C4.95009926 -0.01954697 4.95009926 -0.01954697 6.69897461 -0.01025391 C7.8809996 -0.01312408 9.0630246 -0.01599426 10.28086853 -0.01895142 C12.77644328 -0.02099061 15.27203406 -0.01547092 17.76757812 -0.00292969 C21.59077594 0.01313928 25.41291882 -0.00279166 29.23608398 -0.02197266 C31.66121653 -0.01999048 34.08634842 -0.01614734 36.51147461 -0.01025391 C37.65632828 -0.0163266 38.80118195 -0.02239929 39.98072815 -0.02865601 C41.04540817 -0.01919952 42.1100882 -0.00974304 43.20703125 0 C44.14237198 0.00238678 45.07771271 0.00477356 46.04139709 0.00723267 C49.02174785 0.46184855 50.37853113 1.31037802 52.53881836 3.38818359 C53.64965337 6.72068862 53.70641421 9.31857317 53.72631836 12.82568359 C53.74049805 13.95876953 53.75467773 15.09185547 53.76928711 16.25927734 C53.54457807 19.30998814 53.3144551 20.92917877 51.53881836 23.38818359 C48.28221219 25.4555408 45.71272353 25.6240762 41.89819336 25.58349609 C40.82827148 25.57705078 39.75834961 25.57060547 38.65600586 25.56396484 C37.54483398 25.54720703 36.43366211 25.53044922 35.28881836 25.51318359 C34.16217773 25.50416016 33.03553711 25.49513672 31.87475586 25.48583984 C29.09589471 25.46229017 26.31746446 25.42940039 23.53881836 25.38818359 C23.89596924 26.29358887 24.25312012 27.19899414 24.62109375 28.13183594 C25.97994641 31.57698546 27.33826758 35.02234432 28.69641113 38.46777344 C29.29777579 39.99320998 29.89925618 41.5186009 30.50085449 43.04394531 C34.24547759 52.53907605 37.98793091 62.03472433 41.62109375 71.57324219 C42.67628608 74.72107949 42.67628608 74.72107949 44.53881836 77.38818359 C47.45225546 71.11308829 49.93114784 64.74493572 52.32421875 58.25976562 C53.64442754 54.70391435 55.0079088 51.20804475 56.60131836 47.76318359 C58.84296732 42.90627752 60.54577597 37.8697029 62.29272461 32.81787109 C63.57949737 29.27622068 65.05329541 25.85062386 66.53881836 22.38818359 C67.83258561 18.99944561 69.0635894 15.58738929 70.28881836 12.17333984 C73.95802211 2.17858172 73.95802211 2.17858172 77.53881836 0.38818359 C80.34233374 0.26338943 83.11015576 0.20301222 85.91381836 0.20068359 C86.68209961 0.1884375 87.45038086 0.17619141 88.24194336 0.16357422 C95.46895103 0.14481901 95.46895103 0.14481901 98.53881836 2.38818359 C100.31131416 5.93317519 99.33374104 9.65131648 98.53881836 13.38818359 C96.99769041 17.88443361 95.11880025 22.21758835 93.22631836 26.57568359 C92.39829738 28.52188302 91.57494952 30.47001836 90.7518158 32.41828918 C90.18528661 33.75866917 89.61745381 35.09849888 89.0483551 36.43778992 C86.21631144 43.11091135 83.52683838 49.83843071 80.85131836 56.57568359 C80.12183736 58.39753462 79.39235102 60.21938352 78.66262817 62.0411377 C76.18909746 68.21997772 73.74452564 74.40950364 71.31929016 80.60746765 C69.80161851 84.47634082 68.2702215 88.33970126 66.73666382 92.20230103 C65.98349067 94.10846498 65.23621137 96.01696892 64.49502563 97.92782593 C63.45301573 100.6122219 62.39082479 103.2877997 61.32397461 105.96240234 C61.01602966 106.77036255 60.70808472 107.57832275 60.39080811 108.4107666 C58.95277483 111.96154428 58.07619401 113.97412487 54.98974609 116.35229492 C47.79019993 119.39519505 40.86376084 119.17166174 33.53881836 116.38818359 C30.17282915 113.85389418 29.03525898 110.19330679 27.57006836 106.38818359 C27.15536537 105.33979057 27.15536537 105.33979057 26.73228455 104.2702179 C25.82748357 101.97888715 24.93333609 99.68354592 24.03881836 97.38818359 C23.40831227 95.78780339 22.77687404 94.18779014 22.14453125 92.58813477 C21.18557886 90.16205267 20.2271288 87.73578867 19.27149963 85.30839539 C16.55830554 78.41757859 13.7821634 71.55435656 10.97631836 64.70068359 C10.09862665 62.55228186 9.22102375 60.40384383 8.34350586 58.25537109 C7.89716797 57.16321289 7.45083008 56.07105469 6.9909668 54.94580078 C4.47542882 48.78298649 1.96954557 42.61625019 -0.53585815 36.4493103 C-1.63722486 33.73856842 -2.73926582 31.02810075 -3.84121704 28.31759644 C-4.59246808 26.46738806 -5.3411926 24.61615447 -6.08984375 22.76489258 C-6.958835 20.62513505 -7.83623793 18.48875848 -8.72509766 16.35717773 C-9.09175537 15.47022217 -9.45841309 14.5832666 -9.83618164 13.66943359 C-10.30991211 12.53924805 -10.30991211 12.53924805 -10.79321289 11.38623047 C-11.8152006 8.32923215 -11.6884253 6.34800654 -10.46118164 3.38818359 C-6.91004627 0.77736621 -4.37388261 0.01115168 0 0 Z " fill="#FDFDFD" transform="translate(628.461181640625,81.61181640625)"/>
<path d="M0 0 C3.18739218 2.75250672 3.92463526 4.44870992 4.49609375 8.62890625 C4.47675781 9.92699219 4.45742188 11.22507812 4.4375 12.5625 C4.43621094 13.86316406 4.43492187 15.16382812 4.43359375 16.50390625 C3.98198065 20.14529115 3.68204046 21.55444053 1 24 C-1.76040154 25.15986752 -4.53154866 25.94661689 -7.40625 26.77734375 C-10.64505974 28.30407183 -11.52537786 29.78443601 -13 33 C-13.25196129 35.70953551 -13.25196129 35.70953551 -13 38 C-11.3369416 38.67561748 -9.66905395 39.33933281 -8 40 C-6.79085937 40.48210937 -5.58171875 40.96421875 -4.3359375 41.4609375 C-0.1592404 43.02315173 4.00982697 43.94902168 8.375 44.8125 C24.43256712 48.22739697 43.36719463 52.40284784 53 67 C57.32119159 74.74834353 57.74992004 82.77938223 55.8125 91.3125 C53.94761165 97.86503953 51.21409011 102.4811219 46 107 C45.34 107 44.68 107 44 107 C44 107.66 44 108.32 44 109 C26.62855377 118.36155748 26.62855377 118.36155748 16.5625 117.8125 C13.6734298 116.89645335 12.74941134 116.45118093 11 114 C10.6015625 110.6015625 10.6015625 110.6015625 10.625 106.625 C10.61339844 104.66433594 10.61339844 104.66433594 10.6015625 102.6640625 C11.02318692 98.78677126 11.44091117 96.92543143 14 94 C17.03125 92.77734375 17.03125 92.77734375 20.5 91.9375 C25.1492608 90.87651875 25.1492608 90.87651875 28.89453125 88.14453125 C30.1177792 85.77151667 30.31975311 84.39506211 30.1875 81.75 C30.125625 80.5125 30.06375 79.275 30 78 C22.70730578 75.52790026 15.36630059 73.2423091 8 71 C7.13117188 70.73058594 6.26234375 70.46117187 5.3671875 70.18359375 C0.97602455 68.83518198 -3.39094479 67.68783398 -7.875 66.6875 C-18.8209609 63.99332664 -29.65332099 58.62944401 -36 49 C-39.95170233 40.62171265 -40.25669845 32.09819173 -37.4375 23.3125 C-33.85668926 14.52323727 -27.41512082 8.27715915 -19 4 C-6.29191176 -0.91237024 -6.29191176 -0.91237024 0 0 Z " fill="#FDFDFD" transform="translate(321,82)"/>
<path d="M0 0 C1.97806641 -0.05607422 1.97806641 -0.05607422 3.99609375 -0.11328125 C7.5625 0.3125 7.5625 0.3125 9.97265625 2.20703125 C12.72332969 5.84981499 12.6908674 8.07764046 12.7043457 12.62304688 C12.70955734 13.59425476 12.70955734 13.59425476 12.71487427 14.58508301 C12.72223366 15.99392333 12.72757807 17.40277527 12.73116493 18.81163025 C12.73833931 21.04936041 12.75401691 23.28687241 12.77250671 25.52453613 C12.82490212 31.88807009 12.87285894 38.2514898 12.88842773 44.61523438 C12.89857571 48.50815135 12.92807894 52.4005264 12.96974754 56.29322815 C12.98197529 57.76977923 12.98719399 59.2464072 12.98494911 60.7230072 C12.97510688 69.31719507 13.54287353 76.56773504 17.5625 84.3125 C17.89304886 85.03981323 18.22359772 85.76712646 18.56416321 86.51647949 C20.03653959 89.16530321 21.70633802 89.34018954 24.5625 90.3125 C26.13347375 90.91588438 27.69555393 91.54272976 29.25 92.1875 C30.40048828 92.64769531 30.40048828 92.64769531 31.57421875 93.1171875 C34.06794484 94.61636272 34.6560906 95.55530701 35.5625 98.3125 C35.828125 101.37109375 35.828125 101.37109375 35.8125 104.75 C35.82023437 106.41869141 35.82023437 106.41869141 35.828125 108.12109375 C35.56454925 111.28787881 34.97492379 113.48257177 33.5625 116.3125 C30.91724376 118.55079374 29.40684701 118.30233423 25.9140625 118.07421875 C21.35652259 117.44395365 17.62833825 115.84553875 13.5625 113.75 C12.86334473 113.39212402 12.16418945 113.03424805 11.44384766 112.66552734 C0.02793771 106.5832584 -7.2361256 96.49648576 -11.4375 84.3125 C-13.49213094 75.19415079 -13.74883514 66.18871813 -13.73828125 56.87890625 C-13.74217925 55.42829773 -13.74651615 53.97769033 -13.75126648 52.52708435 C-13.75866446 49.51256575 -13.75848135 46.49816447 -13.75317383 43.48364258 C-13.74733868 39.6280459 -13.76443755 35.77292332 -13.7875185 31.91740513 C-13.80225573 28.93278723 -13.80312842 25.94828423 -13.80000877 22.9636364 C-13.80052039 21.54151394 -13.80572806 20.11938479 -13.81582069 18.69729805 C-13.82818809 16.71433326 -13.81944711 14.73127098 -13.80981445 12.74829102 C-13.81044388 11.62310562 -13.8110733 10.49792023 -13.8117218 9.33863831 C-13.38834668 5.91502251 -12.53458635 4.0346341 -10.4375 1.3125 C-6.91443008 0.13814336 -3.6698872 0.05277882 0 0 Z " fill="#FDFDFD" transform="translate(404.4375,81.6875)"/>
<path d="M0 0 C1.94712891 -0.05994141 1.94712891 -0.05994141 3.93359375 -0.12109375 C8.5094542 0.58326367 9.69446578 1.86826496 12.5625 5.4375 C13.18395996 8.52610779 13.18395996 8.52610779 13.17773438 12.02514648 C13.18703979 13.34099228 13.19634521 14.65683807 13.20593262 16.01255798 C13.19033071 17.44458067 13.17374425 18.87659293 13.15625 20.30859375 C13.15453632 21.79248457 13.15460719 23.27637841 13.15637207 24.76026917 C13.15471934 27.87326997 13.13605032 30.98555033 13.10449219 34.09838867 C13.06512568 38.04866644 13.06041101 41.99798802 13.06795502 45.94842434 C13.07105918 49.01754697 13.05877858 52.08646302 13.04182434 55.15553474 C13.034886 56.60927084 13.03165841 58.06303036 13.03251648 59.51678276 C13.01558657 78.41594162 9.37854274 92.4604439 -3.38671875 106.63671875 C-5.4375 108.4375 -5.4375 108.4375 -8.4375 108.4375 C-8.4375 109.0975 -8.4375 109.7575 -8.4375 110.4375 C-14.74085163 114.32680207 -21.94832426 117.79557065 -29.4375 118.4375 C-31.625 117.875 -31.625 117.875 -33.4375 116.4375 C-36.13799511 111.17153453 -36.08505462 105.21368721 -35.4375 99.4375 C-33.082816 93.4947261 -28.4773861 91.53177226 -22.99609375 88.83203125 C-18.2453272 86.24268215 -16.58922198 83.3535456 -15.02883911 78.29748535 C-13.77512258 72.23394101 -13.99651875 66.02524735 -13.99609375 59.859375 C-13.98430106 58.35962651 -13.97093226 56.85988967 -13.95606995 55.36016846 C-13.92009515 51.43636953 -13.89974215 47.51267399 -13.88452148 43.58874512 C-13.85956782 37.29562177 -13.81991902 31.00272653 -13.76262093 24.70981598 C-13.746359 22.5200914 -13.74252171 20.33058546 -13.73960876 18.14080811 C-13.7298307 16.79536565 -13.71956713 15.44992661 -13.70874023 14.10449219 C-13.70446518 12.93472839 -13.70019012 11.7649646 -13.69578552 10.55975342 C-13.43661245 7.42677099 -12.84303042 5.23565503 -11.4375 2.4375 C-8.03716535 -0.19475906 -4.16534014 0.07017917 0 0 Z " fill="#FEFEFE" transform="translate(481.4375,81.5625)"/>
<path d="M0 0 C4.61860272 -0.05177572 9.23694041 -0.08330047 13.85583496 -0.09893799 C14.98956543 -0.10369141 16.1232959 -0.10844482 17.29138184 -0.11334229 C22.6264548 -0.10255387 27.95732023 0.00852771 33.28552246 0.28387451 C34.23668945 0.32915283 35.18785645 0.37443115 36.16784668 0.42108154 C39.43644992 1.19261887 40.68835554 2.39588247 42.73083496 5.02606201 C43.19177246 8.55731201 43.19177246 8.55731201 43.10583496 12.52606201 C43.09294434 13.83574951 43.08005371 15.14543701 43.06677246 16.49481201 C42.58900337 21.51694288 42.58900337 21.51694288 40.73083496 24.02606201 C37.14801563 26.43280657 33.54607262 26.3157144 29.3795166 26.30072021 C28.6456926 26.30583115 27.91186859 26.31094208 27.1558075 26.31620789 C24.73411871 26.33008875 22.31271501 26.3291483 19.89099121 26.32684326 C18.20474644 26.33073099 16.51850265 26.33506583 14.83226013 26.33982849 C11.29915186 26.34728743 7.76614352 26.34700178 4.23303223 26.34173584 C-0.29088697 26.33594129 -4.81439674 26.35287327 -9.33824825 26.37608051 C-12.82042323 26.390824 -16.30249974 26.39168873 -19.78470039 26.38857079 C-21.45243707 26.38908368 -23.1201793 26.39431543 -24.78788567 26.40438271 C-27.12167722 26.41674211 -29.454673 26.40995901 -31.78845215 26.39837646 C-32.8180455 26.40984207 -32.8180455 26.40984207 -33.86843872 26.42153931 C-38.15691467 26.3745799 -40.87343596 25.67527022 -44.26916504 23.02606201 C-46.31256847 18.72703225 -46.50736025 15.0458088 -46.20666504 10.33856201 C-46.15381348 9.22094482 -46.10096191 8.10332764 -46.04650879 6.95184326 C-45.26916504 4.02606201 -45.26916504 4.02606201 -43.20690918 2.37518311 C-39.59167676 0.71493426 -36.39226005 0.54937031 -32.48791504 0.51434326 C-31.35052383 0.4872805 -31.35052383 0.4872805 -30.19015503 0.45967102 C-27.7165401 0.40484462 -25.24316526 0.37111856 -22.76916504 0.33856201 C-21.05576941 0.30640034 -19.34239021 0.27335243 -17.62902832 0.23944092 C-11.75295375 0.13037514 -5.87665404 0.06749506 0 0 Z " fill="#FDFDFD" transform="translate(784.2691650390625,172.97393798828125)"/>
<path d="M0 0 C0.75318512 -0.0065712 1.50637024 -0.0131424 2.28237915 -0.01991272 C4.77435406 -0.03962039 7.26626882 -0.05130149 9.75830078 -0.0612793 C10.60984867 -0.06535482 11.46139656 -0.06943035 12.33874893 -0.07362938 C16.84431973 -0.09447747 21.34986017 -0.10878568 25.85546875 -0.11816406 C30.50838829 -0.12923712 35.16083074 -0.16365069 39.81358147 -0.20333576 C43.39267873 -0.22947719 46.97166176 -0.23785359 50.5508461 -0.24144554 C52.26605585 -0.24631646 53.98126033 -0.25794488 55.6963768 -0.27648354 C58.09744927 -0.30082736 60.49727945 -0.29991941 62.8984375 -0.29296875 C63.60510559 -0.30577881 64.31177368 -0.31858887 65.03985596 -0.33178711 C68.54931707 -0.29479939 70.50890918 0.13414265 73.52371216 1.98786926 C76.48011725 5.13739455 76.14650209 7.37055666 76.01611328 11.61450195 C75.98324219 13.56163086 75.98324219 13.56163086 75.94970703 15.5480957 C75.60784382 18.89115805 75.20365263 21.24974252 73.57861328 24.17700195 C70.01079946 25.36627323 66.76312469 25.33238224 63.04956055 25.33813477 C62.28501556 25.34309967 61.52047058 25.34806458 60.73275757 25.35317993 C58.20350241 25.36778571 55.67430993 25.37460019 53.14501953 25.38012695 C51.38769021 25.38587883 49.6303609 25.39163656 47.87303162 25.3973999 C44.1885448 25.40790476 40.50407977 25.41375109 36.81958008 25.41723633 C32.09714914 25.42272611 27.37500579 25.44676653 22.65266514 25.47520828 C19.02299657 25.49382413 15.39339751 25.49903965 11.76368523 25.5005722 C10.022546 25.50360064 8.28140805 25.51163559 6.54031563 25.52475739 C4.10567376 25.54179935 1.67173775 25.53994264 -0.76293945 25.53344727 C-1.48255356 25.54266205 -2.20216766 25.55187683 -2.94358826 25.56137085 C-6.01523253 25.5356809 -8.1348584 25.33452743 -10.84925842 23.84222412 C-13.28878152 21.25824421 -13.38468459 18.57806605 -13.42138672 15.17700195 C-13.05654181 5.1297346 -13.05654181 5.1297346 -10.42138672 1.17700195 C-6.88702239 -0.00111949 -3.67865213 0.0139177 0 0 Z " fill="#FEFEFE" transform="translate(751.42138671875,81.822998046875)"/>
<path d="M0 0 C2.23358891 0.0324188 4.46737123 0.05322389 6.70117188 0.06347656 C9.98906063 0.0786194 13.27506423 0.12575017 16.5625 0.18066406 C18.05913177 0.17947067 18.05913177 0.17947067 19.58599854 0.17825317 C26.40041457 0.34705636 26.40041457 0.34705636 29.66894531 3.25830078 C31.42312312 6.6504157 31.57971549 9.11335484 31.546875 12.92285156 C31.56234375 14.71722656 31.56234375 14.71722656 31.578125 16.54785156 C30.9602938 20.47289684 29.80725197 22.12127493 27.046875 24.92285156 C24.12568847 26.38344483 21.5362726 26.07441705 18.27392578 26.09985352 C17.57780182 26.10642471 16.88167786 26.11299591 16.16445923 26.11976624 C13.85703427 26.13950355 11.54967436 26.15116197 9.2421875 26.16113281 C8.45466976 26.16520834 7.66715202 26.16928387 6.85577011 26.17348289 C2.68851737 26.19434429 -1.47870242 26.20864636 -5.64599609 26.21801758 C-9.95267042 26.2290895 -14.2588291 26.26349769 -18.56532097 26.30318928 C-21.87502003 26.32931732 -25.18459545 26.33770592 -28.49438858 26.34129906 C-30.08203748 26.346174 -31.66968053 26.35781384 -33.25722885 26.37633705 C-35.47903237 26.40065162 -37.69949126 26.39977858 -39.92138672 26.39282227 C-41.18554413 26.39868851 -42.44970154 26.40455475 -43.75216675 26.41059875 C-47.53648144 25.83396241 -48.68060354 24.94462613 -50.953125 21.92285156 C-51.96486298 18.88763762 -52.11886014 16.72552077 -52.140625 13.54785156 C-52.15480469 12.61199219 -52.16898438 11.67613281 -52.18359375 10.71191406 C-51.93458075 7.69843473 -51.34026307 5.60495906 -49.953125 2.92285156 C-46.82450766 0.83710667 -45.92428027 0.64502962 -42.33300781 0.50439453 C-41.3951947 0.46492706 -40.45738159 0.42545959 -39.4911499 0.38479614 C-38.47313293 0.35352631 -37.45511597 0.32225647 -36.40625 0.29003906 C-35.34295471 0.25240448 -34.27965942 0.2147699 -33.18414307 0.17599487 C-22.12110419 -0.17380977 -11.06613192 -0.18200875 0 0 Z " fill="#FDFDFD" transform="translate(789.953125,127.0771484375)"/>
<path d="M0 0 C0.75087891 -0.02384766 1.50175781 -0.04769531 2.27539062 -0.07226562 C6.44933688 -0.06125257 8.12856314 0.23023159 11.546875 2.84765625 C13.44417315 5.40312565 14.10915186 6.49597265 14.375 9.5625 C14.89150859 12.12573421 15.25359507 13.27154597 17.17578125 15.08203125 C20.61032554 17.28947622 24.08458057 18.80319552 27.9375 20.125 C31.5625 21.5625 31.5625 21.5625 32.76953125 23.21484375 C33.84236196 26.39105684 33.86436013 29.21448758 33.875 32.5625 C33.89175781 33.779375 33.90851563 34.99625 33.92578125 36.25 C33.53971128 39.77029395 33.11844176 41.15690776 30.5625 43.5625 C24.51179577 46.02902911 18.3126339 44.02606519 12.484375 41.8515625 C2.72277515 37.54497433 -5.50376982 30.59352523 -9.875 20.6875 C-11.65076068 15.59114649 -13.12847833 9.96940547 -12.4375 4.5625 C-9.33978598 -0.24429761 -5.26280118 -0.07640275 0 0 Z " fill="#FDFDFD" transform="translate(291.4375,154.4375)"/>
<path d="M0 0 C9.5402992 0.23081369 19.38171971 4.81817945 26.1875 11.4375 C32.64534649 18.66203146 36.4705833 26.59619243 36.1875 36.4375 C35 39.5 35 39.5 33.1875 41.4375 C29.74508286 42.66637202 26.31356354 42.60420835 22.6875 42.625 C21.5634375 42.63917969 20.439375 42.65335938 19.28125 42.66796875 C16.232871 42.44087991 14.61352715 42.26669131 12.1875 40.4375 C11.09765625 38.1953125 11.09765625 38.1953125 10.25 35.5625 C8.61630814 31.17865505 7.38206002 28.82077274 3.1875 26.4375 C1.12795591 25.60019017 -0.92854088 24.83572763 -3.04296875 24.1484375 C-4.8125 23.4375 -4.8125 23.4375 -6.8125 21.4375 C-8.61938444 16.0858996 -8.50443315 9.80984224 -6.9375 4.4375 C-4.93224126 0.87259558 -4.19912865 0.48186722 0 0 Z " fill="#FDFDFD" transform="translate(338.8125,82.5625)"/>
<path d="M0 0 C0.99 0 1.98 0 3 0 C2.46148032 5.27749285 1.22656164 9.25645564 -1 14 C-1.66 13.34 -2.32 12.68 -3 12 C-2.505 10.6078125 -2.505 10.6078125 -2 9.1875 C-0.85032996 6.07970709 -0.85032996 6.07970709 -1 3 C-0.67 2.01 -0.34 1.02 0 0 Z " fill="#F2F3F2" transform="translate(550,134)"/>
<path d="M0 0 C0.66 0 1.32 0 2 0 C5 6.5 5 6.5 5 11 C4.01 10.67 3.02 10.34 2 10 C0.47839986 6.3962102 0 3.94779314 0 0 Z " fill="#F3F3F3" transform="translate(656,123)"/>
<path d="M0 0 C0.66 0.66 1.32 1.32 2 2 C1.5359375 3.0828125 1.5359375 3.0828125 1.0625 4.1875 C0.07439461 6.80307309 -0.5287754 9.25118982 -1 12 C-1.99 11.34 -2.98 10.68 -4 10 C-2.99806563 6.20696275 -2.18975773 3.28463659 0 0 Z " fill="#F6F7F7" transform="translate(510,176)"/>
<path d="M0 0 C3 1 3 1 4.75 4.3125 C6.33072237 8.97563098 6.33072237 8.97563098 5 12 C2.41741077 9.41741077 2.27012534 7.27124388 1.5625 3.77734375 C1.376875 3.19082031 1.19125 2.60429688 1 2 C0.34 1.67 -0.32 1.34 -1 1 C-0.67 0.67 -0.34 0.34 0 0 Z " fill="#F3F3F3" transform="translate(580,104)"/>
<path d="M0 0 C0.66 0.66 1.32 1.32 2 2 C0 5 0 5 -2.4375 5.8125 C-5 6 -5 6 -8 4 C-7.67 3.34 -7.34 2.68 -7 2 C-4.6859378 1.26924352 -2.35171131 0.59861742 0 0 Z " fill="#F5F7F6" transform="translate(462,193)"/>
<path d="M0 0 C3 1 3 1 4.25 3.25 C5.07700926 6.28236729 4.85394079 8.01120724 4 11 C1.54176828 7.31265242 0.98757384 4.30300029 0 0 Z " fill="#F3F3F3" transform="translate(574,90)"/>
</svg>
